frame=   15 fps=0.0 q=15.0 size=     508kB time=00:00:00.50 bitrate=8329.5kbits/s dup=5 drop=0    
frame=   26 fps= 25 q=17.0 size=     751kB time=00:00:00.86 bitrate=7096.1kbits/s dup=6 drop=0    
frame=   37 fps= 24 q=17.0 size=     980kB time=00:00:01.23 bitrate=6507.4kbits/s dup=7 drop=0    
frame=   48 fps= 23 q=18.0 size=    1219kB time=00:00:01.60 bitrate=6239.1kbits/s dup=8 drop=0    
frame=   60 fps= 23 q=16.0 size=    1479kB time=00:00:02.00 bitrate=6058.2kbits/s dup=10 drop=0    
frame=   71 fps= 23 q=18.0 size=    1702kB time=00:00:02.36 bitrate=5890.4kbits/s dup=11 drop=0    
frame=   82 fps= 23 q=19.0 size=    1932kB time=00:00:02.73 bitrate=5790.6kbits/s dup=12 drop=0    
frame=   95 fps= 23 q=16.0 size=    2184kB time=00:00:03.16 bitrate=5649.6kbits/s dup=15 drop=0    
frame=  106 fps= 23 q=18.0 size=    2403kB time=00:00:03.53 bitrate=5571.2kbits/s dup=17 drop=0    
frame=  118 fps= 23 q=18.0 size=    2644kB time=00:00:03.93 bitrate=5505.9kbits/s dup=20 drop=0    
frame=  130 fps= 23 q=18.0 size=    2885kB time=00:00:04.33 bitrate=5453.2kbits/s dup=23 drop=0    
frame=  144 fps= 23 q=18.0 size=    3176kB time=00:00:04.80 bitrate=5420.9kbits/s dup=27 drop=0    
frame=  157 fps= 23 q=19.0 size=    3451kB time=00:00:05.23 bitrate=5402.7kbits/s dup=32 drop=0    
frame=  171 fps= 23 q=18.0 size=    3745kB time=00:00:05.70 bitrate=5381.9kbits/s dup=38 drop=0    
frame=  183 fps= 23 q=18.0 size=    4014kB time=00:00:06.10 bitrate=5390.8kbits/s dup=43 drop=0    
frame=  196 fps= 23 q=19.0 size=    4300kB time=00:00:06.53 bitrate=5391.7kbits/s dup=48 drop=0    
frame=  210 fps= 23 q=19.0 size=    4601kB time=00:00:07.00 bitrate=5384.9kbits/s dup=55 drop=0    
frame=  226 fps= 24 q=17.0 size=    4919kB time=00:00:07.53 bitrate=5349.2kbits/s dup=64 drop=0    
frame=  241 fps= 24 q=17.0 size=    5239kB time=00:00:08.03 bitrate=5342.4kbits/s dup=72 drop=0    
frame=  255 fps= 24 q=17.0 size=    5532kB time=00:00:08.50 bitrate=5331.6kbits/s dup=79 drop=0    
frame=  270 fps= 24 q=19.0 size=    5824kB time=00:00:09.00 bitrate=5301.2kbits/s dup=87 drop=0    
frame=  286 fps= 24 q=16.0 size=    6162kB time=00:00:09.53 bitrate=5295.0kbits/s dup=97 drop=0    
frame=  300 fps= 24 q=18.0 size=    6433kB time=00:00:10.00 bitrate=5270.1kbits/s dup=105 drop=0    
frame=  316 fps= 25 q=17.0 size=    6733kB time=00:00:10.53 bitrate=5236.1kbits/s dup=114 drop=0    
frame=  332 fps= 25 q=16.0 size=    7073kB time=00:00:11.06 bitrate=5235.8kbits/s dup=124 drop=0    
frame=  348 fps= 25 q=17.0 size=    7389kB time=00:00:11.60 bitrate=5218.3kbits/s dup=133 drop=0    
frame=  366 fps= 25 q=17.0 size=    7772kB time=00:00:12.20 bitrate=5218.9kbits/s dup=144 drop=0    
frame=  377 fps= 24 q=16.0 size=    8069kB time=00:00:12.56 bitrate=5260.2kbits/s dup=151 drop=0    
frame=  390 fps= 24 q=20.0 size=    8328kB time=00:00:13.00 bitrate=5248.0kbits/s dup=159 drop=0    
frame=  405 fps= 25 q=19.0 size=    8631kB time=00:00:13.50 bitrate=5237.6kbits/s dup=169 drop=0    
frame=  420 fps= 25 q=18.0 size=    8925kB time=00:00:14.00 bitrate=5222.2kbits/s dup=179 drop=0    
frame=  437 fps= 25 q=17.0 size=    9157kB time=00:00:14.56 bitrate=5150.0kbits/s dup=191 drop=0    
frame=  453 fps= 25 q=18.0 size=    9366kB time=00:00:15.10 bitrate=5081.3kbits/s dup=202 drop=0    
frame=  469 fps= 25 q=17.0 size=    9620kB time=00:00:15.63 bitrate=5041.2kbits/s dup=213 drop=0    
frame=  485 fps= 25 q=16.0 size=    9974kB time=00:00:16.16 bitrate=5054.2kbits/s dup=224 drop=0    
frame=  502 fps= 25 q=18.0 size=   10286kB time=00:00:16.73 bitrate=5035.7kbits/s dup=236 drop=0    
frame=  518 fps= 26 q=17.0 size=   10577kB time=00:00:17.26 bitrate=5018.2kbits/s dup=247 drop=0    
frame=  534 fps= 26 q=17.0 size=   10892kB time=00:00:17.80 bitrate=5012.8kbits/s dup=258 drop=0    
frame=  550 fps= 26 q=17.0 size=   11230kB time=00:00:18.33 bitrate=5017.8kbits/s dup=269 drop=0    
frame=  567 fps= 26 q=16.0 size=   11479kB time=00:00:18.90 bitrate=4975.5kbits/s dup=281 drop=0    